<svg width="123" height="123" fill="none" xmlns="http://www.w3.org/2000/svg"><rect x=".813" y=".438" width="10" height="10" rx="5" fill="#81818B" fill-opacity=".2"/><rect x="16.813" y=".438" width="10" height="10" rx="5" fill="#81818B" fill-opacity=".2"/><rect x="32.813" y=".438" width="10" height="10" rx="5" fill="#81818B" fill-opacity=".2"/><rect x="48.813" y=".438" width="10" height="10" rx="5" fill="#81818B" fill-opacity=".2"/><rect x="64.813" y=".438" width="10" height="10" rx="5" fill="#81818B" fill-opacity=".2"/><rect x="80.813" y=".438" width="10" height="10" rx="5" fill="#81818B" fill-opacity=".2"/><rect x="96.813" y=".438" width="10" height="10" rx="5" fill="#81818B" fill-opacity=".2"/><rect x="112.812" y=".438" width="10" height="10" rx="5" fill="#81818B" fill-opacity=".2"/><rect x=".813" y="16.438" width="10" height="10" rx="5" fill="#81818B" fill-opacity=".2"/><rect x="16.813" y="16.438" width="10" height="10" rx="5" fill="#81818B" fill-opacity=".2"/><rect x="32.813" y="16.438" width="10" height="10" rx="5" fill="#81818B" fill-opacity=".2"/><rect x="48.813" y="16.438" width="10" height="10" rx="5" fill="#81818B" fill-opacity=".2"/><rect x="64.813" y="16.438" width="10" height="10" rx="5" fill="#81818B" fill-opacity=".2"/><rect x="80.813" y="16.438" width="10" height="10" rx="5" fill="#81818B" fill-opacity=".2"/><rect x="96.813" y="16.438" width="10" height="10" rx="5" fill="#81818B" fill-opacity=".2"/><rect x="112.812" y="16.438" width="10" height="10" rx="5" fill="#81818B" fill-opacity=".2"/><rect x=".813" y="32.438" width="10" height="10" rx="5" fill="#81818B" fill-opacity=".2"/><rect x="16.813" y="32.438" width="10" height="10" rx="5" fill="#81818B" fill-opacity=".2"/><rect x="32.813" y="32.438" width="10" height="10" rx="5" fill="#81818B" fill-opacity=".2"/><rect x="48.813" y="32.438" width="10" height="10" rx="5" fill="#81818B" fill-opacity=".2"/><rect x="64.813" y="32.438" width="10" height="10" rx="5" fill="#81818B" fill-opacity=".2"/><rect x="80.813" y="32.438" width="10" height="10" rx="5" fill="#81818B" fill-opacity=".2"/><rect x="96.813" y="32.438" width="10" height="10" rx="5" fill="#81818B" fill-opacity=".2"/><rect x="112.812" y="32.438" width="10" height="10" rx="5" fill="#81818B" fill-opacity=".2"/><rect x=".813" y="48.438" width="10" height="10" rx="5" fill="#81818B" fill-opacity=".2"/><rect x="16.813" y="48.438" width="10" height="10" rx="5" fill="#81818B" fill-opacity=".2"/><rect x="32.813" y="48.438" width="10" height="10" rx="5" fill="#81818B" fill-opacity=".2"/><rect x="48.813" y="48.438" width="10" height="10" rx="5" fill="#81818B" fill-opacity=".2"/><rect x="64.813" y="48.438" width="10" height="10" rx="5" fill="#81818B" fill-opacity=".2"/><rect x="80.813" y="48.438" width="10" height="10" rx="5" fill="#81818B" fill-opacity=".2"/><rect x="96.813" y="48.438" width="10" height="10" rx="5" fill="#81818B" fill-opacity=".2"/><rect x="112.812" y="48.438" width="10" height="10" rx="5" fill="#81818B" fill-opacity=".2"/><rect x=".813" y="64.438" width="10" height="10" rx="5" fill="#81818B" fill-opacity=".2"/><rect x="16.813" y="64.438" width="10" height="10" rx="5" fill="#81818B" fill-opacity=".2"/><rect x="32.813" y="64.438" width="10" height="10" rx="5" fill="#81818B" fill-opacity=".2"/><rect x="48.813" y="64.438" width="10" height="10" rx="5" fill="#81818B" fill-opacity=".2"/><rect x="64.813" y="64.438" width="10" height="10" rx="5" fill="#81818B" fill-opacity=".2"/><rect x="80.813" y="64.438" width="10" height="10" rx="5" fill="#81818B" fill-opacity=".2"/><rect x="96.813" y="64.438" width="10" height="10" rx="5" fill="#81818B" fill-opacity=".2"/><rect x="112.812" y="64.438" width="10" height="10" rx="5" fill="#81818B" fill-opacity=".2"/><rect x=".813" y="80.438" width="10" height="10" rx="5" fill="#81818B" fill-opacity=".2"/><rect x="16.813" y="80.438" width="10" height="10" rx="5" fill="#81818B" fill-opacity=".2"/><rect x="32.813" y="80.438" width="10" height="10" rx="5" fill="#81818B" fill-opacity=".2"/><rect x="48.813" y="80.438" width="10" height="10" rx="5" fill="#81818B" fill-opacity=".2"/><rect x="64.813" y="80.438" width="10" height="10" rx="5" fill="#81818B" fill-opacity=".2"/><rect x="80.813" y="80.438" width="10" height="10" rx="5" fill="#81818B" fill-opacity=".2"/><rect x="96.813" y="80.438" width="10" height="10" rx="5" fill="#81818B" fill-opacity=".2"/><rect x="112.812" y="80.438" width="10" height="10" rx="5" fill="#81818B" fill-opacity=".2"/><rect x=".813" y="96.438" width="10" height="10" rx="5" fill="#81818B" fill-opacity=".2"/><rect x="16.813" y="96.438" width="10" height="10" rx="5" fill="#81818B" fill-opacity=".2"/><rect x="32.813" y="96.438" width="10" height="10" rx="5" fill="#81818B" fill-opacity=".2"/><rect x="48.813" y="96.438" width="10" height="10" rx="5" fill="#81818B" fill-opacity=".2"/><rect x="64.813" y="96.438" width="10" height="10" rx="5" fill="#81818B" fill-opacity=".2"/><rect x="80.813" y="96.438" width="10" height="10" rx="5" fill="#81818B" fill-opacity=".2"/><rect x="96.813" y="96.438" width="10" height="10" rx="5" fill="#81818B" fill-opacity=".2"/><rect x="112.812" y="96.438" width="10" height="10" rx="5" fill="#81818B" fill-opacity=".2"/><rect x=".813" y="112.438" width="10" height="10" rx="5" fill="#81818B" fill-opacity=".2"/><rect x="16.813" y="112.438" width="10" height="10" rx="5" fill="#81818B" fill-opacity=".2"/><rect x="32.813" y="112.438" width="10" height="10" rx="5" fill="#81818B" fill-opacity=".2"/><rect x="48.813" y="112.438" width="10" height="10" rx="5" fill="#81818B" fill-opacity=".2"/><rect x="64.813" y="112.438" width="10" height="10" rx="5" fill="#81818B" fill-opacity=".2"/><rect x="80.813" y="112.438" width="10" height="10" rx="5" fill="#81818B" fill-opacity=".2"/><rect x="96.813" y="112.438" width="10" height="10" rx="5" fill="#81818B" fill-opacity=".2"/><rect x="112.812" y="112.438" width="10" height="10" rx="5" fill="#81818B" fill-opacity=".2"/></svg>