<svg width="183" height="65" fill="none" xmlns="http://www.w3.org/2000/svg"><path fill-rule="evenodd" clip-rule="evenodd" d="M29.595 31.236c2.74-3.502 7.129-5.771 12.075-5.771 4.975 0 9.385 2.296 12.122 5.833a4.2 4.2 0 00-.318.35c-.502.616-.879 1.411-1.181 2.218-.609 1.623-1.073 3.742-1.503 5.727l-.038.179c-.429 1.981-.827 3.824-1.31 5.192-.216.614-.421 1.049-.603 1.327-.19-.28-.406-.72-.634-1.343-.515-1.408-.949-3.322-1.408-5.365l-.015-.067c-.442-1.963-.91-4.046-1.494-5.64-.294-.801-.654-1.588-1.125-2.2-.462-.599-1.231-1.276-2.356-1.276-1.119 0-1.891.67-2.36 1.263-.48.607-.855 1.39-1.163 2.192-.62 1.613-1.128 3.724-1.6 5.712l-.05.205c-.467 1.969-.904 3.81-1.4 5.18-.19.524-.37.922-.531 1.206a8.033 8.033 0 01-.517-1.197c-.476-1.342-.893-3.13-1.341-5.053l-.079-.336c-.464-1.989-.967-4.104-1.597-5.722-.313-.804-.696-1.592-1.19-2.202a4.139 4.139 0 00-.384-.412zm-1.658 2.69c.13.244.268.548.411.915.545 1.4 1.007 3.312 1.482 5.35l.093.396c.433 1.86.883 3.793 1.414 5.287.282.794.622 1.573 1.06 2.177.415.572 1.159 1.311 2.302 1.311 1.14 0 1.885-.735 2.302-1.304.442-.604.788-1.381 1.076-2.176.552-1.524 1.021-3.503 1.47-5.396l.07-.29c.484-2.039.95-3.954 1.492-5.36.25-.652.485-1.105.69-1.387.193.28.414.726.649 1.366.515 1.407.948 3.321 1.408 5.365l.015.067c.441 1.963.91 4.046 1.494 5.64.293.8.654 1.587 1.124 2.199.463.6 1.232 1.276 2.357 1.276 1.13 0 1.897-.683 2.354-1.288.464-.614.813-1.403 1.094-2.203.542-1.537.972-3.53 1.383-5.427l.059-.275c.442-2.041.866-3.948 1.39-5.344a8.35 8.35 0 01.332-.78 13.632 13.632 0 011.248 5.706c0 7.89-6.732 14.287-15.036 14.287-8.304 0-15.036-6.397-15.036-14.287 0-2.075.465-4.047 1.303-5.826zM41.67 22.607c-9.965 0-18.043 7.675-18.043 17.143s8.078 17.144 18.043 17.144 18.043-7.676 18.043-17.144c0-9.468-8.078-17.143-18.043-17.143zm.344 10.602l-.011.007a.044.044 0 01.01-.007zm-.416.002a.041.041 0 01-.01-.008l.01.008zm7.02 13.35s.002-.003.009-.007a.045.045 0 01-.01.007zm.436-.011l.011.007-.01-.007zm-14.664.037l.013-.01a.062.062 0 01-.013.01zm.61-.008a.06.06 0 01.012.01L35 46.58z" fill="#81818B"/><path d="M69.676 49.9L65.3 35.68h3.833l2.595 10.235 3.017-10.235h4.285l3.018 10.235 2.625-10.235h3.832L84.1 49.9h-4.013l-3.2-10.636L73.69 49.9h-4.013zm24.453.345c-1.288 0-2.344-.192-3.169-.574-.824-.401-1.438-.927-1.84-1.577a4.007 4.007 0 01-.604-2.15c0-1.319.543-2.39 1.63-3.211 1.086-.822 2.716-1.233 4.888-1.233h3.802v-.344c0-.975-.291-1.691-.875-2.15-.583-.459-1.308-.688-2.172-.688-.785 0-1.47.181-2.052.544-.584.345-.946.86-1.087 1.549h-3.772c.101-1.032.463-1.93 1.086-2.695.645-.765 1.47-1.348 2.475-1.75 1.006-.42 2.132-.63 3.38-.63 2.132 0 3.812.507 5.039 1.52 1.227 1.013 1.841 2.446 1.841 4.3v8.745h-3.29l-.362-2.294c-.442.765-1.066 1.395-1.87 1.892-.785.497-1.8.746-3.048.746zm.875-2.867c1.107 0 1.961-.345 2.564-1.032.624-.688 1.017-1.54 1.178-2.552h-3.29c-1.025 0-1.76.181-2.202.545-.443.343-.664.774-.664 1.29 0 .554.221.984.664 1.29.443.306 1.025.459 1.75.459zm13.775 2.522l-5.492-14.22h4.043l3.802 10.752 3.802-10.752h4.044l-5.522 14.22h-4.677zm17.963.345c-1.508 0-2.846-.306-4.013-.918a6.838 6.838 0 01-2.746-2.58c-.664-1.108-.995-2.39-.995-3.842 0-1.472.322-2.781.965-3.928a6.966 6.966 0 012.716-2.666c1.166-.65 2.534-.975 4.104-.975 1.468 0 2.766.306 3.892.918 1.127.611 2.002 1.452 2.625 2.523.644 1.05.966 2.226.966 3.526 0 .21-.01.43-.03.66 0 .229-.01.468-.03.716H122.82c.08 1.109.483 1.978 1.207 2.61.744.63 1.639.945 2.686.945.784 0 1.438-.162 1.961-.487a3.233 3.233 0 001.207-1.32h3.922a6.68 6.68 0 01-1.418 2.467c-.644.726-1.448 1.3-2.414 1.72-.945.42-2.022.63-3.229.63zm.031-11.927c-.945 0-1.781.258-2.505.774-.724.497-1.187 1.261-1.388 2.294h7.453c-.06-.937-.422-1.683-1.086-2.237-.664-.554-1.488-.831-2.474-.831zm9.525 11.582V29.259h3.862V49.9h-3.862zm13.873.345c-1.508 0-2.846-.306-4.013-.918a6.835 6.835 0 01-2.745-2.58c-.665-1.108-.996-2.39-.996-3.842 0-1.472.322-2.781.965-3.928a6.966 6.966 0 012.716-2.666c1.167-.65 2.535-.975 4.104-.975 1.468 0 2.766.306 3.893.918 1.126.611 2.002 1.452 2.625 2.523.643 1.05.966 2.226.966 3.526 0 .21-.011.43-.031.66 0 .229-.01.468-.03.716h-11.376c.08 1.109.483 1.978 1.207 2.61.744.63 1.64.945 2.686.945.784 0 1.438-.162 1.961-.487a3.226 3.226 0 001.207-1.32h3.923a6.708 6.708 0 01-1.418 2.467c-.645.726-1.449 1.3-2.415 1.72-.945.42-2.021.63-3.229.63zm.031-11.927c-.945 0-1.78.258-2.505.774-.724.497-1.186 1.261-1.388 2.294h7.453c-.06-.937-.422-1.683-1.086-2.237-.664-.554-1.488-.831-2.474-.831zm15.711 11.927c-1.328 0-2.495-.201-3.5-.602-1.007-.421-1.811-.994-2.415-1.72a4.813 4.813 0 01-1.086-2.523h3.892c.121.553.444 1.032.966 1.433.543.382 1.237.573 2.082.573.845 0 1.459-.162 1.841-.487.402-.325.603-.698.603-1.118 0-.612-.281-1.023-.844-1.233-.564-.23-1.348-.45-2.354-.66a26.882 26.882 0 01-1.961-.487 10.374 10.374 0 01-1.841-.717 4.198 4.198 0 01-1.328-1.147c-.342-.477-.513-1.06-.513-1.748 0-1.262.523-2.323 1.57-3.183 1.065-.86 2.554-1.29 4.465-1.29 1.771 0 3.179.392 4.225 1.175 1.066.784 1.699 1.864 1.901 3.24h-3.651c-.222-1.05-1.057-1.577-2.505-1.577-.724 0-1.287.134-1.69.402-.382.267-.573.602-.573 1.003 0 .42.292.755.875 1.004.584.248 1.358.478 2.323.688 1.046.23 2.002.487 2.867.774.885.267 1.589.678 2.113 1.233.522.535.784 1.309.784 2.322.02.88-.222 1.672-.724 2.38-.503.707-1.227 1.261-2.173 1.663-.945.401-2.062.602-3.349.602zm14.646 0c-1.327 0-2.494-.201-3.5-.602-1.006-.421-1.81-.994-2.414-1.72a4.805 4.805 0 01-1.086-2.523h3.892c.121.553.443 1.032.966 1.433.543.382 1.237.573 2.082.573.845 0 1.459-.162 1.841-.487.402-.325.603-.698.603-1.118 0-.612-.281-1.023-.845-1.233-.563-.23-1.347-.45-2.353-.66a26.778 26.778 0 01-1.962-.487 10.393 10.393 0 01-1.84-.717 4.198 4.198 0 01-1.328-1.147c-.342-.477-.513-1.06-.513-1.748 0-1.262.523-2.323 1.569-3.183 1.066-.86 2.555-1.29 4.466-1.29 1.77 0 3.178.392 4.224 1.175 1.066.784 1.7 1.864 1.902 3.24h-3.652c-.221-1.05-1.056-1.577-2.504-1.577-.725 0-1.288.134-1.69.402-.382.267-.573.602-.573 1.003 0 .42.291.755.875 1.004.583.248 1.357.478 2.323.688 1.046.23 2.002.487 2.867.774.885.267 1.589.678 2.112 1.233.523.535.785 1.309.785 2.322a3.85 3.85 0 01-.725 2.38c-.503.707-1.227 1.261-2.172 1.663-.946.401-2.062.602-3.35.602z" fill="#81818B"/></svg>