<svg width="211" height="65" fill="none" xmlns="http://www.w3.org/2000/svg"><path d="M75.886 51.832c-2.356 0-4.44-.475-6.25-1.424-1.81-.97-3.209-2.34-4.198-4.11-.988-1.768-1.483-3.85-1.483-6.244 0-2.394.495-4.475 1.483-6.244.99-1.79 2.389-3.16 4.199-4.109 1.81-.97 3.893-1.456 6.25-1.456 1.6 0 3.009.173 4.23.518 1.241.323 2.377.841 3.408 1.553v4.691a8.6 8.6 0 00-3.188-1.682c-1.178-.367-2.525-.55-4.04-.55-1.41 0-2.683.302-3.82.906a6.563 6.563 0 00-2.65 2.523c-.653 1.1-.98 2.384-.98 3.85 0 1.489.295 2.794.884 3.915a6.418 6.418 0 002.557 2.556c1.094.604 2.357.906 3.788.906 1.305 0 2.44-.237 3.409-.712v-4.367h-3.567v-3.624h8.207v10.903c-2.083 1.467-4.83 2.2-8.239 2.2zm9.347-16.016h4.608v2.233c.611-.755 1.463-1.327 2.557-1.715 1.094-.41 2.337-.615 3.725-.615v3.72c-1.452 0-2.736.227-3.85.68-1.095.453-1.853 1.143-2.273 2.07v9.157h-4.767v-15.53zm20.05 16.016c-2.905 0-5.188-.712-6.85-2.136-1.663-1.445-2.494-3.462-2.494-6.05 0-2.567.737-4.595 2.21-6.083 1.494-1.488 3.619-2.232 6.376-2.232 1.81 0 3.345.345 4.609 1.035 1.262.69 2.22 1.65 2.872 2.88.652 1.207.978 2.577.978 4.109v1.973h-12.499c.336 1.985 2.146 2.977 5.429 2.977.968 0 1.968-.086 2.999-.26 1.031-.172 1.925-.409 2.683-.71v3.429c-.737.323-1.684.582-2.841.776a21.009 21.009 0 01-3.472.292zm3.188-9.675c-.063-1.035-.442-1.833-1.137-2.394-.694-.582-1.652-.873-2.872-.873-1.199 0-2.147.291-2.841.873-.694.583-1.073 1.38-1.136 2.395h7.986zm14.283 9.675c-2.903 0-5.187-.712-6.849-2.136-1.663-1.445-2.494-3.462-2.494-6.05 0-2.567.736-4.595 2.21-6.083 1.494-1.488 3.619-2.232 6.376-2.232 1.809 0 3.346.345 4.609 1.035 1.262.69 2.219 1.65 2.871 2.88.653 1.207.979 2.577.979 4.109v1.973h-12.5c.337 1.985 2.147 2.977 5.43 2.977.968 0 1.968-.086 2.998-.26 1.031-.172 1.926-.409 2.683-.71v3.429c-.736.323-1.683.582-2.84.776a21.012 21.012 0 01-3.473.292zm3.189-9.675c-.064-1.035-.442-1.833-1.136-2.394-.696-.582-1.653-.873-2.873-.873-1.2 0-2.146.291-2.841.873-.695.583-1.073 1.38-1.137 2.395h7.987zm5.571-6.341h4.608v1.909a6.498 6.498 0 012.463-1.78 7.695 7.695 0 013.03-.614c2.063 0 3.599.571 4.608 1.715 1.031 1.121 1.548 2.642 1.548 4.562v9.738h-4.767v-9.188c0-2.006-.905-3.01-2.715-3.01-.799 0-1.546.205-2.241.615-.695.389-1.284.971-1.768 1.747v9.836h-4.766v-15.53zm20.461-2.394c-.736 0-1.356-.248-1.861-.744-.506-.496-.758-1.122-.758-1.877 0-.733.252-1.348.758-1.844a2.498 2.498 0 011.861-.777c.737 0 1.358.26 1.863.777.505.496.757 1.11.757 1.844 0 .755-.252 1.38-.757 1.877-.505.496-1.126.744-1.863.744zm-2.399 2.394h4.799v15.53h-4.799v-15.53zm12.928 16.016c-1.136 0-2.357-.13-3.662-.389-1.283-.237-2.293-.582-3.03-1.035V46.59c.842.518 1.852.938 3.03 1.262 1.179.323 2.273.485 3.283.485.863 0 1.494-.075 1.894-.226.399-.151.599-.432.599-.841 0-.324-.115-.583-.347-.777-.231-.216-.589-.4-1.073-.55-.463-.173-1.242-.42-2.336-.744-1.283-.388-2.294-.777-3.03-1.165-.715-.41-1.262-.917-1.641-1.52-.358-.605-.537-1.381-.537-2.33 0-1.618.62-2.826 1.863-3.624 1.262-.82 2.966-1.23 5.113-1.23 1.052 0 2.136.12 3.251.357 1.136.215 2.01.507 2.62.873v3.721c-.61-.41-1.41-.744-2.399-1.003a10.974 10.974 0 00-2.841-.388c-.863 0-1.536.086-2.02.259-.463.172-.695.496-.695.97 0 .41.221.723.663.938.463.216 1.316.486 2.557.81l.632.161c1.325.367 2.356.777 3.093 1.23.736.431 1.252.96 1.547 1.585.315.604.473 1.37.473 2.297 0 1.424-.6 2.567-1.799 3.43-1.199.84-2.936 1.262-5.208 1.262zm8.109-24.396h4.766v10.16a6.91 6.91 0 012.43-1.683 7.295 7.295 0 012.905-.582c2.062 0 3.598.571 4.608 1.715 1.031 1.121 1.547 2.642 1.547 4.562v9.738h-4.766v-9.188c0-2.006-.905-3.01-2.715-3.01-.8 0-1.546.205-2.241.615-.695.389-1.284.971-1.768 1.747v9.836h-4.766v-23.91z" fill="#81818B"/><path fill-rule="evenodd" clip-rule="evenodd" d="M47.677 32.014c0 4.11-3.25 7.442-7.26 7.442s-7.26-3.332-7.26-7.442 3.25-7.441 7.26-7.441 7.26 3.331 7.26 7.441zm-24.147 6.9c7.91-.546 14.803 5.524 15.445 13.649.067.841.064 1.673-.004 2.487-7.91.547-14.803-5.523-15.445-13.648a15.366 15.366 0 01.004-2.487zm20.558 15.852c7.926-.658 13.848-7.724 13.315-15.831a14.259 14.259 0 00-2.427-.005c-7.926.658-13.848 7.724-13.315 15.831.795.07 1.606.073 2.427.005z" fill="#81818B"/></svg>