<svg width="211" height="65" fill="none" xmlns="http://www.w3.org/2000/svg"><path d="M23.174 45.394l11.66-5.053 6.71 3.79L42.9 56.564l-8.27-.066 1.22-8.644-1.423-.798-6.982 5.32-4.271-6.982zm19.116-1.795l10.304 7.38 4.068-7.114-8.27-3.258V39.01l8.27-3.324-4.068-7.048-10.303 7.38v7.58zm-.746-8.179L42.9 22.989l-8.27.133 1.22 8.643-1.423.798-7.05-5.319-4.203 6.915 11.66 5.053 6.71-3.79zm42.708 2.866v11.648h4.451V35.09h-6.481v3.196h2.03zm-.139-5.282c.408.415 1.03.623 1.864.623.835 0 1.447-.208 1.836-.623.409-.434.612-.976.612-1.625 0-.669-.203-1.21-.612-1.626-.389-.433-1-.65-1.836-.65-.834 0-1.456.217-1.864.65-.389.416-.584.957-.584 1.625 0 .65.195 1.192.584 1.626zM68.758 49.609c1.26.56 2.809.84 4.645.84 1.725 0 3.208-.263 4.451-.786 1.243-.524 2.198-1.255 2.865-2.194.687-.958 1.03-2.068 1.03-3.332 0-1.228-.324-2.267-.974-3.115-.63-.867-1.511-1.544-2.643-2.032-1.13-.506-2.439-.822-3.922-.948l-1.558-.135c-.927-.073-1.595-.316-2.003-.732-.408-.415-.612-.903-.612-1.462 0-.434.112-.831.333-1.192.224-.38.557-.678 1.002-.894.464-.217 1.03-.325 1.697-.325.705 0 1.29.126 1.753.379.102.053.199.11.29.171l.022.015.1.07c.282.21.506.459.673.746.24.398.362.84.362 1.328h4.45c0-1.3-.306-2.43-.917-3.387-.612-.975-1.493-1.724-2.643-2.248-1.132-.542-2.495-.813-4.09-.813-1.52 0-2.837.253-3.95.759-1.113.488-1.984 1.192-2.615 2.113-.612.92-.918 2.013-.918 3.278 0 1.751.603 3.16 1.808 4.225 1.206 1.066 2.82 1.68 4.84 1.842l1.531.136c1.242.108 2.142.352 2.699.73.555.362.834.859.834 1.49 0 .291-.049.564-.147.818a2.235 2.235 0 01-.298.537c-.298.38-.733.677-1.308.894-.575.217-1.288.325-2.142.325-.946 0-1.715-.126-2.309-.38-.593-.27-1.038-.622-1.336-1.055a2.562 2.562 0 01-.416-1.41h-4.424c0 1.283.325 2.421.974 3.414.65.975 1.604 1.752 2.866 2.33zm29.877.514c-1.54 0-2.782-.18-3.728-.541-.946-.38-1.641-1.003-2.087-1.87-.426-.885-.64-2.076-.64-3.575v-5.878h-2.309v-3.17h2.31v-4.008h4.144v4.009h4.452v3.169h-4.452v6.04c0 .705.186 1.246.557 1.626.39.361.936.541 1.641.541h2.254v3.657h-2.142z" fill="#81818B"/><path fill-rule="evenodd" clip-rule="evenodd" d="M106.136 49.798c1.001.434 2.151.65 3.449.65 1.28 0 2.412-.216 3.394-.65.983-.433 1.8-1.038 2.448-1.814a6.19 6.19 0 001.308-2.655h-4.089c-.186.451-.538.83-1.057 1.137-.52.307-1.188.461-2.004.461a4.83 4.83 0 01-1.355-.175 3.072 3.072 0 01-.815-.367 3.153 3.153 0 01-1.224-1.517 5.908 5.908 0 01-.313-1.219h11.135v-1.462c0-1.355-.297-2.6-.89-3.738a7.016 7.016 0 00-2.587-2.79c-1.113-.723-2.485-1.084-4.118-1.084-1.242 0-2.355.216-3.338.65-.964.415-1.771.984-2.42 1.706a7.868 7.868 0 00-1.503 2.466c-.333.902-.5 1.85-.5 2.844v.541c0 .958.167 1.897.5 2.818a8.3 8.3 0 001.503 2.465c.667.722 1.492 1.3 2.476 1.733zm-.181-8.827a4.322 4.322 0 01.173-.61c.029-.08.059-.157.092-.233.277-.668.686-1.174 1.223-1.517.201-.128.419-.233.653-.313a4.074 4.074 0 011.322-.202c.761 0 1.391.172 1.892.515.519.325.909.803 1.169 1.436a5.853 5.853 0 01.146.413 5.363 5.363 0 01.161.724h-6.874c.013-.072.027-.143.043-.213z" fill="#81818B"/><path d="M118.85 49.934V35.09h3.533v3.738a7.302 7.302 0 01.334-1.138c.389-1.012.973-1.77 1.752-2.276.779-.523 1.734-.785 2.866-.785h.194c1.15 0 2.105.262 2.866.785.779.506 1.363 1.264 1.752 2.276l.031.076.026.07.054-.146c.408-1.011 1.002-1.77 1.781-2.276.779-.523 1.734-.785 2.866-.785h.194c1.15 0 2.114.262 2.893.785.798.506 1.401 1.264 1.808 2.276.408 1.011.613 2.275.613 3.792v8.452h-4.452v-8.696c0-.812-.222-1.471-.667-1.977-.427-.506-1.039-.759-1.836-.759-.798 0-1.428.262-1.892.786-.463.506-.695 1.183-.695 2.032v8.614h-4.479v-8.696c0-.812-.223-1.471-.668-1.977-.426-.506-1.03-.759-1.808-.759-.816 0-1.456.262-1.92.786-.463.506-.695 1.183-.695 2.032v8.614h-4.451z" fill="#81818B"/><path fill-rule="evenodd" clip-rule="evenodd" d="M154.303 47.074v2.86h3.532v-9.102c0-1.372-.278-2.492-.834-3.359-.557-.885-1.372-1.544-2.448-1.977-1.057-.434-2.365-.65-3.923-.65a53.987 53.987 0 00-1.724.027c-.613.018-1.206.045-1.781.081l-.439.029a73.162 73.162 0 00-1.063.08v3.656a161.204 161.204 0 012.506-.136 80.46 80.46 0 013.086-.08c.815 0 1.409.19 1.78.569.371.379.556.948.556 1.706v.054h-2.754c-1.353 0-2.55.172-3.589.515-1.038.325-1.845.84-2.419 1.544-.576.686-.863 1.571-.863 2.655 0 .993.232 1.85.695 2.573.464.704 1.104 1.246 1.92 1.625.835.38 1.799.57 2.893.57 1.057 0 1.948-.19 2.671-.57a4.108 4.108 0 001.725-1.625 4.864 4.864 0 00.437-.94l.036-.105zm-.752-2.639v-1.192h-2.782c-.779 0-1.381.19-1.808.569-.408.361-.612.858-.612 1.49 0 .297.051.568.152.811.103.245.256.462.46.651.427.362 1.029.542 1.808.542a3.646 3.646 0 00.76-.07c.203-.04.396-.098.576-.174.408-.18.742-.478 1.001-.894.26-.415.409-.993.445-1.733z" fill="#81818B"/><path d="M160.499 49.934V35.09h3.534v4.9c.169-1.4.595-2.527 1.279-3.384.928-1.137 2.262-1.706 4.006-1.706h.585v3.738h-1.113c-1.224 0-2.17.325-2.838.975-.668.632-1.002 1.553-1.002 2.763v7.558h-4.451zM175.547 43h1.474l4.813 6.934h5.007l-6.102-8.517 5.017-6.327h-4.673l-5.536 7.058V30.159h-4.451v19.775h4.451V43z" fill="#81818B"/></svg>