<svg width="211" height="65" fill="none" xmlns="http://www.w3.org/2000/svg"><path d="M71.248 30.8c1.588 0 2.962.256 4.123.767 1.177.511 2.081 1.236 2.713 2.176.631.94.947 2.053.947 3.339 0 1.269-.316 2.382-.947 3.338-.632.94-1.536 1.665-2.713 2.176-1.161.495-2.535.742-4.123.742h-3.61v4.773h-4.146V30.8h7.756zm-.23 9.274c1.245 0 2.193-.256 2.841-.767.65-.527.973-1.27.973-2.225 0-.973-.324-1.715-.972-2.226-.649-.528-1.597-.791-2.842-.791h-3.38v6.009h3.38zm13.227-3.512c.477-.643 1.118-1.129 1.92-1.459.819-.33 1.757-.494 2.816-.494v3.56a15.69 15.69 0 00-.897-.049c-1.143 0-2.039.314-2.687.94-.649.61-.973 1.533-.973 2.77v6.281H80.43V34.807h3.815v1.755zm12.259 11.747c-1.45 0-2.756-.289-3.917-.866-1.143-.593-2.04-1.41-2.688-2.448-.648-1.039-.972-2.218-.972-3.536 0-1.32.324-2.498.972-3.537.649-1.038 1.545-1.846 2.688-2.423 1.16-.593 2.466-.89 3.917-.89 1.45 0 2.748.297 3.891.89 1.144.577 2.04 1.385 2.689 2.423.648 1.04.972 2.218.972 3.537 0 1.318-.324 2.497-.972 3.536-.649 1.038-1.545 1.855-2.689 2.448-1.143.577-2.44.866-3.891.866zm0-3.166c1.024 0 1.86-.33 2.509-.989.665-.676.998-1.574.998-2.695 0-1.121-.332-2.012-.998-2.671-.649-.676-1.485-1.014-2.51-1.014-1.023 0-1.868.338-2.533 1.014-.666.66-.999 1.55-.999 2.67 0 1.122.333 2.02.999 2.696.665.66 1.51.99 2.534.99zM122.163 30.8v17.31h-3.405l-8.935-10.51v10.51h-4.096V30.8h3.43l8.91 10.51V30.8h4.096zm8.233 3.809c2.133 0 3.772.494 4.915 1.483 1.144.973 1.715 2.449 1.715 4.427v7.592h-3.737v-1.657c-.751 1.236-2.15 1.855-4.198 1.855-1.059 0-1.981-.173-2.766-.52-.767-.346-1.356-.824-1.766-1.434a3.644 3.644 0 01-.614-2.077c0-1.237.478-2.21 1.433-2.918.973-.71 2.467-1.063 4.481-1.063h3.174c0-.841-.264-1.484-.794-1.93-.529-.461-1.322-.692-2.38-.692a7.08 7.08 0 00-2.176.346c-.7.215-1.298.511-1.793.89l-1.433-2.695c.751-.51 1.646-.907 2.687-1.187a12.66 12.66 0 013.252-.42zm-.307 11.103c.683 0 1.288-.148 1.817-.445a2.582 2.582 0 001.127-1.36v-1.36h-2.739c-1.639 0-2.458.519-2.458 1.558 0 .494.196.89.589 1.187.409.28.964.42 1.664.42zm18.155 1.756c-.392.28-.879.494-1.459.643a7.858 7.858 0 01-1.792.197c-1.638 0-2.91-.403-3.814-1.21-.888-.809-1.332-1.996-1.332-3.562v-5.465h-2.124v-2.968h2.124v-3.24h3.994v3.24h3.43v2.968h-3.43v5.416c0 .56.145.997.435 1.31.307.297.734.445 1.28.445.632 0 1.169-.165 1.613-.494l1.075 2.72zm14.838-12.661V48.11h-3.789v-1.583a5.436 5.436 0 01-1.895 1.336 6.289 6.289 0 01-2.381.445c-1.809 0-3.242-.503-4.301-1.509-1.058-1.005-1.587-2.497-1.587-4.476v-7.517h3.994v6.948c0 2.143.93 3.215 2.79 3.215.956 0 1.724-.296 2.305-.89.579-.61.87-1.508.87-2.695v-6.578h3.994zm6.234 1.755c.477-.643 1.118-1.129 1.92-1.459.819-.33 1.758-.494 2.816-.494v3.56a15 15 0 00-.896-.049c-1.144 0-2.04.314-2.688.94-.649.61-.973 1.533-.973 2.77v6.281h-3.994V34.807h3.815v1.755zm19.197 4.946c0 .05-.025.396-.077 1.039h-10.419a3.126 3.126 0 001.331 1.953c.7.478 1.57.717 2.611.717.717 0 1.348-.099 1.894-.296a4.763 4.763 0 001.562-.99l2.125 2.226c-1.297 1.435-3.192 2.152-5.684 2.152-1.552 0-2.926-.289-4.121-.866-1.195-.593-2.116-1.41-2.765-2.448-.649-1.039-.973-2.218-.973-3.536 0-1.303.316-2.473.948-3.512a6.62 6.62 0 012.636-2.448c1.127-.593 2.381-.89 3.764-.89 1.348 0 2.568.28 3.661.84a6.157 6.157 0 012.56 2.424c.631 1.039.947 2.25.947 3.635zm-7.143-3.981c-.904 0-1.664.247-2.278.742-.615.494-.99 1.17-1.127 2.028h6.785c-.137-.841-.513-1.51-1.127-2.004-.614-.51-1.365-.766-2.253-.766z" fill="#81818B"/><path fill-rule="evenodd" clip-rule="evenodd" d="M40.748 21.16a2.024 2.024 0 00-1.967 0c-4.322 2.415-7.237 6.934-7.237 12.113 0 .737.059 1.462.173 2.17a11.108 11.108 0 00-8.828.843c-.61.34-.984.967-.984 1.646.003 3.582 1.93 7.073 5.38 8.998a10.996 10.996 0 005.363 1.393 7.056 7.056 0 00-.428 2.426c0 4.025 3.378 7.288 7.544 7.288 4.167 0 7.544-3.263 7.544-7.288 0-.852-.151-1.67-.43-2.43a10.99 10.99 0 005.03-1.39c3.45-1.924 5.377-5.415 5.38-8.997a1.885 1.885 0 00-.984-1.646 11.11 11.11 0 00-8.475-.953c.103-.672.156-1.36.156-2.06 0-5.18-2.915-9.698-7.237-12.113zm-5.276 12.113c0-3.363 1.686-6.348 4.292-8.205 2.607 1.857 4.292 4.842 4.292 8.204 0 3.363-1.685 6.348-4.292 8.205-2.606-1.857-4.292-4.842-4.292-8.204zm12.04 6.301a7.025 7.025 0 015.74-.489c-.34 1.852-1.494 3.547-3.308 4.558a7.027 7.027 0 01-5.742.49c.342-1.852 1.495-3.547 3.31-4.559zm-21.572-.489a7.025 7.025 0 015.742.49c1.814 1.01 2.967 2.706 3.309 4.557a7.025 7.025 0 01-5.741-.489c-1.814-1.011-2.968-2.706-3.31-4.558zm10.208 11.664c0-1.928 1.62-3.492 3.616-3.492 1.997 0 3.616 1.564 3.616 3.492 0 1.929-1.62 3.493-3.616 3.493-1.997 0-3.616-1.564-3.616-3.493z" fill="#81818B"/></svg>