<svg width="211" height="65" fill="none" xmlns="http://www.w3.org/2000/svg"><path d="M29.876 28.296c2.154-1.962 5.079-3.107 8.043-3.25 1.015 0 2.033.006 3.048-.003-.052 1.038 0 2.078-.031 3.116a11.144 11.144 0 01-2.556 6.406c-1.969 2.447-4.98 4.09-8.175 4.514-1.396.215-2.813.078-4.217.116.024-1.142-.052-2.287.042-3.427.275-2.825 1.673-5.53 3.846-7.472zm12.03-3.253c1.088.012 2.176-.006 3.266.006 2.715.183 5.394 1.177 7.438 2.9 2.255 1.846 3.8 4.485 4.195 7.305.174 1.308.065 2.63.132 3.944-.951-.003-1.899-.006-2.85 0-2.336-.061-4.634-.782-6.59-1.997-.902-.616-1.828-1.24-2.504-2.096a11.278 11.278 0 01-2.874-5.658c-.286-1.454-.17-2.936-.213-4.404zM25.99 40.03c.966.051 1.935-.045 2.897.057 4.123.084 8.124 2.293 10.26 5.656 1.224 1.884 1.883 4.116 1.797 6.333-.003.727.01 1.45-.012 2.175-1.53-.044-3.074.075-4.589-.207-3.364-.54-6.456-2.45-8.318-5.176a11.193 11.193 0 01-2.041-6.796c0-.683 0-1.363.006-2.043zm25.798.307c1.658-.352 3.367-.294 5.052-.294l.074.07c-.037 1.52.088 3.058-.232 4.56-.674 3.372-3.013 6.383-6.161 8.037-1.96 1.04-4.208 1.552-6.447 1.529-.716.003-1.435-.012-2.151.008 0-1.258-.055-2.522.094-3.775.347-3.032 2.066-5.854 4.537-7.76a13.123 13.123 0 015.234-2.375zm17.634 8.284c0 .512-.186.945-.557 1.299-.351.335-.795.502-1.33.502-.517 0-.95-.167-1.3-.502a1.776 1.776 0 01-.527-1.299V30.377c0-.511.176-.934.526-1.269a1.898 1.898 0 011.362-.531c.536 0 .97.177 1.3.531.35.335.526.758.526 1.27V48.62zm14.906-13.993c.536 0 .98.178 1.33.532.35.334.526.757.526 1.27v7.497c0 2.086-.609 3.74-1.825 4.96-1.218 1.22-2.971 1.83-5.262 1.83-2.29 0-4.044-.61-5.26-1.83-1.197-1.22-1.796-2.874-1.796-4.96V36.43c0-.512.176-.935.526-1.27.351-.353.795-.53 1.331-.53.537 0 .98.177 1.33.53.352.335.527.758.527 1.27v7.498c0 1.2.28 2.096.836 2.687.557.57 1.392.856 2.506.856 1.136 0 1.98-.286 2.538-.856.557-.59.836-1.486.836-2.687V36.43c0-.512.175-.935.526-1.27.35-.353.794-.53 1.33-.53zm13.025-.295c1.65 0 2.868.384 3.652 1.151.784.748 1.3 1.722 1.547 2.923l-.526-.266.248-.472c.247-.453.629-.935 1.145-1.447a6.633 6.633 0 011.857-1.328c.742-.374 1.568-.56 2.475-.56 1.486 0 2.61.304 3.374.914.784.61 1.32 1.427 1.609 2.45.289 1.004.433 2.126.433 3.366v7.557c0 .512-.175.945-.526 1.299-.351.335-.794.502-1.331.502-.536 0-.98-.167-1.33-.502a1.776 1.776 0 01-.527-1.299v-7.557c0-.65-.082-1.23-.247-1.742a2.403 2.403 0 00-.898-1.27c-.433-.314-1.052-.472-1.856-.472-.784 0-1.455.158-2.012.473-.557.315-.98.738-1.269 1.27-.268.51-.402 1.091-.402 1.74v7.558c0 .512-.176.945-.526 1.299-.351.335-.795.502-1.331.502-.536 0-.98-.167-1.33-.502a1.775 1.775 0 01-.527-1.299v-7.557c0-.65-.082-1.23-.248-1.742a2.405 2.405 0 00-.897-1.27c-.433-.314-1.052-.472-1.857-.472-.783 0-1.454.158-2.011.473-.557.315-.98.738-1.269 1.27-.268.51-.402 1.091-.402 1.74v7.558c0 .512-.175.945-.526 1.299-.351.335-.794.502-1.33.502-.537 0-.98-.167-1.332-.502a1.776 1.776 0 01-.526-1.299V36.43c0-.512.175-.935.526-1.27.351-.353.795-.53 1.331-.53.537 0 .98.177 1.331.53.35.335.526.758.526 1.27v1.27l-.465-.089c.186-.335.445-.689.774-1.063.33-.393.733-.758 1.207-1.092.475-.335 1-.6 1.578-.797a5.344 5.344 0 011.888-.325zm21.783 14.288c0 .512-.175.945-.527 1.299-.35.335-.793.502-1.33.502-.536 0-.98-.167-1.331-.502a1.778 1.778 0 01-.525-1.299V36.43c0-.512.175-.935.525-1.27.351-.353.795-.53 1.331-.53.537 0 .98.177 1.33.53.352.335.527.758.527 1.27v12.192zm-1.888-15.911c-.701 0-1.196-.109-1.486-.325-.288-.217-.432-.6-.432-1.151v-.561c0-.571.155-.955.463-1.152.331-.216.826-.324 1.486-.324.723 0 1.228.108 1.516.324.29.217.434.6.434 1.152v.56c0 .571-.155.965-.465 1.181-.308.197-.814.296-1.516.296zm13.008 1.623c1.527 0 2.682.305 3.466.915.805.61 1.351 1.427 1.64 2.45.31 1.004.464 2.126.464 3.366v7.557c0 .512-.175.945-.526 1.299-.35.335-.794.502-1.331.502-.536 0-.979-.167-1.33-.502a1.776 1.776 0 01-.527-1.299v-7.557c0-.65-.092-1.23-.277-1.742a2.357 2.357 0 00-.929-1.27c-.454-.314-1.104-.472-1.95-.472-.825 0-1.527.158-2.104.473a3.42 3.42 0 00-1.3 1.27c-.289.51-.434 1.091-.434 1.74v7.558c0 .512-.174.945-.525 1.299-.351.335-.795.502-1.331.502-.537 0-.98-.167-1.33-.502a1.772 1.772 0 01-.527-1.299V36.43c0-.512.175-.935.527-1.27.35-.353.793-.53 1.33-.53.536 0 .98.177 1.331.53.351.335.525.758.525 1.27v1.27l-.463-.089a5.47 5.47 0 01.804-1.063 7.248 7.248 0 011.238-1.092 6.066 6.066 0 011.609-.797 5.698 5.698 0 011.95-.325zM154.2 42.54c0 1.614-.382 3.04-1.145 4.28a7.828 7.828 0 01-3.033 2.864c-1.259.689-2.672 1.033-4.24 1.033s-2.992-.344-4.27-1.033a8.114 8.114 0 01-3.033-2.864c-.743-1.24-1.114-2.666-1.114-4.28 0-1.614.371-3.03 1.114-4.251a8.041 8.041 0 013.033-2.893c1.278-.709 2.702-1.063 4.27-1.063 1.568 0 2.981.355 4.24 1.063a7.763 7.763 0 013.033 2.893c.763 1.22 1.145 2.637 1.145 4.25zm-3.714 0c0-1.004-.216-1.87-.65-2.598a4.431 4.431 0 00-1.702-1.742c-.701-.413-1.485-.62-2.352-.62-.866 0-1.661.207-2.383.62a4.724 4.724 0 00-1.702 1.742c-.412.728-.619 1.594-.619 2.598 0 .984.207 1.85.619 2.598a4.792 4.792 0 001.702 1.712c.722.413 1.517.62 2.383.62.867 0 1.651-.207 2.352-.62a4.487 4.487 0 001.702-1.712c.434-.748.65-1.614.65-2.598zm17.555-7.912c.536 0 .98.178 1.331.532.35.334.526.757.526 1.27v7.497c0 2.086-.609 3.74-1.826 4.96-1.218 1.22-2.971 1.83-5.261 1.83s-4.044-.61-5.261-1.83c-1.197-1.22-1.795-2.874-1.795-4.96V36.43c0-.512.175-.935.526-1.27.351-.353.794-.53 1.331-.53.536 0 .98.177 1.331.53.35.335.526.758.526 1.27v7.498c0 1.2.278 2.096.835 2.687.557.57 1.393.856 2.507.856 1.134 0 1.981-.286 2.537-.856.558-.59.836-1.486.836-2.687V36.43c0-.512.176-.935.526-1.27.351-.353.795-.53 1.331-.53zm3.37 13.344c-.206-.276-.299-.63-.278-1.063.021-.433.289-.807.805-1.122.33-.197.68-.275 1.052-.236.371.02.732.197 1.083.531a7.31 7.31 0 001.888 1.329c.66.315 1.485.472 2.475.472.31-.02.65-.059 1.022-.118.371-.079.691-.236.959-.472.288-.256.433-.64.433-1.152 0-.433-.155-.777-.464-1.033-.31-.256-.722-.472-1.238-.65a18.574 18.574 0 00-1.671-.501c-.64-.177-1.3-.374-1.981-.59a8.944 8.944 0 01-1.826-.827 4.28 4.28 0 01-1.361-1.388c-.351-.57-.526-1.289-.526-2.154 0-.985.288-1.821.866-2.51.578-.689 1.321-1.22 2.228-1.594a7.717 7.717 0 012.909-.56c.64 0 1.31.078 2.012.235a7.405 7.405 0 012.012.709 4.76 4.76 0 011.609 1.27c.226.294.361.649.402 1.062.041.413-.155.787-.588 1.122-.309.236-.67.344-1.083.325-.412-.04-.753-.178-1.021-.414-.351-.433-.825-.777-1.424-1.033-.578-.256-1.248-.384-2.011-.384-.31 0-.65.04-1.022.118-.35.06-.66.207-.928.443-.268.217-.402.57-.402 1.063 0 .453.154.817.464 1.092.309.256.722.472 1.238.65.536.157 1.104.315 1.702.472a25.57 25.57 0 011.888.56 7.65 7.65 0 011.764.857c.536.354.969.817 1.299 1.387.331.551.495 1.26.495 2.126 0 1.004-.309 1.86-.928 2.568-.619.709-1.393 1.25-2.321 1.624a7.922 7.922 0 01-2.847.53c-1.217 0-2.434-.196-3.652-.59a6.41 6.41 0 01-3.033-2.154z" fill="#81818B"/></svg>