<svg width="77" height="76" fill="none" xmlns="http://www.w3.org/2000/svg"><path opacity=".06" d="M55.404.266H21.628C10.08.266.718 9.626.718 21.174V54.95c0 11.548 9.362 20.91 20.91 20.91h33.776c11.547 0 20.908-9.362 20.908-20.91V21.174c0-11.547-9.36-20.908-20.908-20.908z" fill="#0089FF"/><path d="M38.516 63.803c14.216 0 25.74-11.524 25.74-25.74 0-14.217-11.524-25.74-25.74-25.74s-25.74 11.523-25.74 25.74c0 14.216 11.524 25.74 25.74 25.74z" fill="#1B76FF"/><path clip-rule="evenodd" d="M25.106 32.969h4.646v18.16h-4.646c-.7 0-1.267-.54-1.267-1.205V34.175c0-.666.567-1.206 1.267-1.206z" stroke="#fff" stroke-width="1.608" stroke-linecap="round" stroke-linejoin="round"/><path clip-rule="evenodd" d="M51.78 47.73c-.294 2.263-1.807 3.4-4.495 3.4H33.217c-1.911 0-3.465-1.463-3.465-3.262V32.99c4.46-.434 6.691-1.992 6.691-6.18v-2.006c0-2.116 1.8-3.83 4.022-3.83.846 0 1.671.254 2.357.726.945.653 1.547 1.888 1.547 3.667v5.81c0 .494.837.899 1.673.899h4.488c1.89 0 3.423 1.423 3.465 3.193.029 1.179-.71 4.83-2.215 12.46z" stroke="#fff" stroke-width="1.608" stroke-linecap="round" stroke-linejoin="round"/></svg>