<svg width="76" height="76" fill="none" xmlns="http://www.w3.org/2000/svg"><path opacity=".06" d="M55.029.266H21.253C9.705.266.343 9.626.343 21.174V54.95c0 11.548 9.362 20.91 20.91 20.91h33.776c11.547 0 20.908-9.362 20.908-20.91V21.174C75.938 9.628 66.578.267 55.03.267z" fill="#FF6F35"/><path d="M38.14 63.803c14.217 0 25.741-11.524 25.741-25.74 0-14.217-11.524-25.74-25.74-25.74S12.4 23.845 12.4 38.062c0 14.216 11.524 25.74 25.74 25.74z" fill="#FFCD1D"/><path d="M38.14 21.845V54.28m7.372-26.538H34.455a5.16 5.16 0 100 10.32h7.372a5.16 5.16 0 110 10.32H29.295" stroke="#fff" stroke-width="2.413" stroke-linecap="round" stroke-linejoin="round"/></svg>